<svg width="50" height="50" viewBox="0 0 50 50" fill="none" xmlns="http://www.w3.org/2000/svg">
<path d="M6.25 22.9167H12.5C13.6051 22.9167 14.6649 23.3557 15.4463 24.1371C16.2277 24.9185 16.6667 25.9783 16.6667 27.0834V33.3334C16.6667 34.4385 16.2277 35.4983 15.4463 36.2797C14.6649 37.0611 13.6051 37.5001 12.5 37.5001H10.4167C9.3116 37.5001 8.25179 37.0611 7.47039 36.2797C6.68899 35.4983 6.25 34.4385 6.25 33.3334V22.9167ZM6.25 22.9167C6.25 20.4545 6.73498 18.0163 7.67726 15.7414C8.61953 13.4666 10.0006 11.3996 11.7417 9.6585C13.4828 7.9174 15.5498 6.53628 17.8247 5.59401C20.0995 4.65173 22.5377 4.16675 25 4.16675C27.4623 4.16675 29.9005 4.65173 32.1753 5.59401C34.4502 6.53628 36.5172 7.9174 38.2582 9.6585C39.9993 11.3996 41.3805 13.4666 42.3227 15.7414C43.265 18.0163 43.75 20.4545 43.75 22.9167M43.75 22.9167V33.3334C43.75 34.4385 43.311 35.4983 42.5296 36.2797C41.7482 37.0611 40.6884 37.5001 39.5833 37.5001H37.5C36.3949 37.5001 35.3351 37.0611 34.5537 36.2797C33.7723 35.4983 33.3333 34.4385 33.3333 33.3334V27.0834C33.3333 25.9783 33.7723 24.9185 34.5537 24.1371C35.3351 23.3557 36.3949 22.9167 37.5 22.9167H43.75Z" stroke="white" stroke-width="4" stroke-linecap="round" stroke-linejoin="round"/>
<path d="M43.75 33.3333V37.4999C43.75 39.7101 42.872 41.8297 41.3092 43.3925C39.7464 44.9553 37.6268 45.8333 35.4167 45.8333H25" stroke="white" stroke-width="4" stroke-linecap="round" stroke-linejoin="round"/>
</svg>
