<svg width="21" height="21" viewBox="0 0 21 21" fill="none" xmlns="http://www.w3.org/2000/svg">
<path d="M15.8 17.3875L14 9.1875L17.5 5.6875C19 4.1875 19.5 2.1875 19 1.1875C18 0.6875 16 1.1875 14.5 2.6875L11 6.1875L2.8 4.3875C2.3 4.2875 1.9 4.4875 1.7 4.8875L1.4 5.3875C1.2 5.8875 1.3 6.3875 1.7 6.6875L7 10.1875L5 13.1875H2L1 14.1875L4 16.1875L6 19.1875L7 18.1875V15.1875L10 13.1875L13.5 18.4875C13.8 18.8875 14.3 18.9875 14.8 18.7875L15.3 18.5875C15.7 18.2875 15.9 17.8875 15.8 17.3875Z" stroke="white" stroke-width="2" stroke-linecap="round" stroke-linejoin="round"/>
</svg>
