<svg width="60" height="60" viewBox="0 0 60 60" fill="none" xmlns="http://www.w3.org/2000/svg">
<path d="M40 30V35C40 36.3261 39.4732 37.5979 38.5355 38.5355C37.5979 39.4732 36.3261 40 35 40H22.5C21.837 40 21.2011 40.2634 20.7322 40.7322C20.2634 41.2011 20 41.837 20 42.5V50C20 51.3261 20.5268 52.5979 21.4645 53.5355C22.4021 54.4732 23.6739 55 25 55H50C51.3261 55 52.5979 54.4732 53.5355 53.5355C54.4732 52.5979 55 51.3261 55 50V25C55 23.6739 54.4732 22.4021 53.5355 21.4645C52.5979 20.5268 51.3261 20 50 20" stroke="black" stroke-width="5" stroke-linecap="round" stroke-linejoin="round"/>
<path d="M10 40C8.67392 40 7.40215 39.4732 6.46447 38.5355C5.52678 37.5979 5 36.3261 5 35V10C5 8.67392 5.52678 7.40215 6.46447 6.46447C7.40215 5.52678 8.67392 5 10 5H35C36.3261 5 37.5979 5.52678 38.5355 6.46447C39.4732 7.40215 40 8.67392 40 10V17.5C40 18.163 39.7366 18.7989 39.2678 19.2678C38.7989 19.7366 38.163 20 37.5 20H25C23.6739 20 22.4021 20.5268 21.4645 21.4645C20.5268 22.4021 20 23.6739 20 25V30" stroke="black" stroke-width="5" stroke-linecap="round" stroke-linejoin="round"/>
</svg>
