<svg width="65" height="65" viewBox="0 0 65 65" fill="none" xmlns="http://www.w3.org/2000/svg">
<path d="M51.3247 56.5619L45.3866 29.5103L56.933 17.9639C61.8814 13.0155 63.5309 6.41753 61.8814 3.11856C58.5825 1.46907 51.9845 3.11856 47.0361 8.06701L35.4897 19.6134L8.43814 13.6753C6.78866 13.3454 5.46907 14.0052 4.80928 15.3247L3.81959 16.9742C3.15979 18.6237 3.48969 20.2732 4.80928 21.2629L22.2938 32.8093L15.6959 42.7062H5.79897L2.5 46.0052L12.3969 52.6031L18.9948 62.5L22.2938 59.201V49.3041L32.1907 42.7062L43.7371 60.1907C44.7268 61.5103 46.3763 61.8402 48.0258 61.1804L49.6753 60.5206C50.9948 59.5309 51.6546 58.2113 51.3247 56.5619Z" stroke="black" stroke-width="5" stroke-linecap="round" stroke-linejoin="round"/>
</svg>
